<?xml version="1.0" encoding="UTF-8" standalone="no"?>
<!-- Created with Inkscape (http://www.inkscape.org/) -->

<svg
   version="1.1"
   id="svg1"
   width="708.83197"
   height="712.20398"
   viewBox="0 0 708.83197 712.20398"
   sodipodi:docname="Logo_FBO_2024_new.ai"
   xmlns:inkscape="http://www.inkscape.org/namespaces/inkscape"
   xmlns:sodipodi="http://sodipodi.sourceforge.net/DTD/sodipodi-0.dtd"
   xmlns:xlink="http://www.w3.org/1999/xlink"
   xmlns="http://www.w3.org/2000/svg"
   xmlns:svg="http://www.w3.org/2000/svg">
  <defs
     id="defs1">
    
    <radialGradient
       fx="-0.792207"
       fy="9.7049597e-06"
       cx="0"
       cy="0"
       r="1"
       gradientUnits="userSpaceOnUse"
       gradientTransform="matrix(-98.001877,-95.192139,-51.253578,52.779556,387.3627,384.01944)"
       spreadMethod="pad"
       id="radialGradient74">
      <stop
         style="stop-opacity:1;stop-color:#a6a8ab icc-color(Coated FOGRA39 (ISO 12647-2:2004), 0.375, 0.27734375, 0.26951599, 0.0625);"
         offset="0"
         id="stop72" />
      <stop
         style="stop-opacity:1;stop-color:#ffffff icc-color(Coated FOGRA39 (ISO 12647-2:2004), 0, 0, 0, 0);"
         offset="0.49595794"
         id="stop73" />
      <stop
         style="stop-opacity:1;stop-color:#ffffff icc-color(Coated FOGRA39 (ISO 12647-2:2004), 0, 0, 0, 0);"
         offset="1"
         id="stop74" />
    </radialGradient>
    <clipPath
       clipPathUnits="userSpaceOnUse"
       id="clipPath74">
      <path
         d="M 274.20203,495.39801 H 500.52404 V 272.643 H 274.20203 Z"
         id="path74" />
    </clipPath>
    <clipPath
       clipPathUnits="userSpaceOnUse"
       id="clipPath76">
      <path
         d="m 1542.5333,0 h 793.7014 v 782.31333 h -793.7014 z"
         id="path76" />
    </clipPath>
    <radialGradient
       fx="-0.792207"
       fy="9.7049597e-06"
       cx="0"
       cy="0"
       r="1"
       gradientUnits="userSpaceOnUse"
       gradientTransform="matrix(-98.004425,-95.194611,-51.254909,52.780926,421.80319,326.30246)"
       spreadMethod="pad"
       id="radialGradient78">
      <stop
         style="stop-opacity:1;stop-color:#a6a8ab icc-color(Coated FOGRA39 (ISO 12647-2:2004), 0.375, 0.27734375, 0.26951599, 0.0625);"
         offset="0"
         id="stop76" />
      <stop
         style="stop-opacity:1;stop-color:#ffffff icc-color(Coated FOGRA39 (ISO 12647-2:2004), 0, 0, 0, 0);"
         offset="0.49595794"
         id="stop77" />
      <stop
         style="stop-opacity:1;stop-color:#ffffff icc-color(Coated FOGRA39 (ISO 12647-2:2004), 0, 0, 0, 0);"
         offset="1"
         id="stop78" />
    </radialGradient>
    <clipPath
       clipPathUnits="userSpaceOnUse"
       id="clipPath78">
      <path
         d="M 308.64203,437.68101 H 534.96604 V 214.922 H 308.64203 Z"
         id="path78" />
    </clipPath>
    <clipPath
       clipPathUnits="userSpaceOnUse"
       id="clipPath80">
      <path
         d="m 1542.5333,0 h 793.7014 v 782.31333 h -793.7014 z"
         id="path80" />
    </clipPath>
    <linearGradient
       x1="0"
       y1="0"
       x2="1"
       y2="0"
       gradientUnits="userSpaceOnUse"
       gradientTransform="matrix(-236.86452,-296.08072,-296.08072,236.86452,456.27069,538.44446)"
       spreadMethod="pad"
       id="linearGradient88">
      <stop
         style="stop-opacity:1;stop-color:#e7e8e9"
         offset="0"
         id="stop86" />
      <stop
         style="stop-opacity:1;stop-color:#ffffff"
         offset="0.83871509"
         id="stop87" />
      <stop
         style="stop-opacity:1;stop-color:#ffffff"
         offset="1"
         id="stop88" />
    </linearGradient>
    <linearGradient
       x1="0"
       y1="0"
       x2="1"
       y2="0"
       gradientUnits="userSpaceOnUse"
       gradientTransform="matrix(-70.621162,-88.276482,-88.276482,70.621162,123.01377,389.96359)"
       spreadMethod="pad"
       id="linearGradient91">
      <stop
         style="stop-opacity:1;stop-color:#e7e8e9"
         offset="0"
         id="stop89" />
      <stop
         style="stop-opacity:1;stop-color:#ffffff"
         offset="0.83871509"
         id="stop90" />
      <stop
         style="stop-opacity:1;stop-color:#ffffff"
         offset="1"
         id="stop91" />
    </linearGradient>
    <linearGradient
       x1="0"
       y1="0"
       x2="1"
       y2="0"
       gradientUnits="userSpaceOnUse"
       gradientTransform="matrix(-65.842842,-82.303574,-82.303574,65.842842,307.2518,180.96524)"
       spreadMethod="pad"
       id="linearGradient94">
      <stop
         style="stop-opacity:1;stop-color:#e7e8e9"
         offset="0"
         id="stop92" />
      <stop
         style="stop-opacity:1;stop-color:#ffffff"
         offset="0.83871509"
         id="stop93" />
      <stop
         style="stop-opacity:1;stop-color:#ffffff"
         offset="1"
         id="stop94" />
    </linearGradient>
    <linearGradient
       x1="0"
       y1="0"
       x2="1"
       y2="0"
       gradientUnits="userSpaceOnUse"
       gradientTransform="matrix(-103.6478,-129.55978,-129.55978,103.6478,188.84598,263.02908)"
       spreadMethod="pad"
       id="linearGradient97">
      <stop
         style="stop-opacity:1;stop-color:#e7e8e9"
         offset="0"
         id="stop95" />
      <stop
         style="stop-opacity:1;stop-color:#ffffff"
         offset="0.83871509"
         id="stop96" />
      <stop
         style="stop-opacity:1;stop-color:#ffffff"
         offset="1"
         id="stop97" />
    </linearGradient>
    <linearGradient
       x1="0"
       y1="0"
       x2="1"
       y2="0"
       gradientUnits="userSpaceOnUse"
       gradientTransform="matrix(-54.329769,-67.912231,-67.912231,54.329769,547.323,226.32208)"
       spreadMethod="pad"
       id="linearGradient100">
      <stop
         style="stop-opacity:1;stop-color:#e7e8e9"
         offset="0"
         id="stop98" />
      <stop
         style="stop-opacity:1;stop-color:#ffffff"
         offset="0.83871509"
         id="stop99" />
      <stop
         style="stop-opacity:1;stop-color:#ffffff"
         offset="1"
         id="stop100" />
    </linearGradient>
    <linearGradient
       x1="0"
       y1="0"
       x2="1"
       y2="0"
       gradientUnits="userSpaceOnUse"
       gradientTransform="matrix(-37.738056,-47.172584,-47.172584,37.738056,381.99756,118.97809)"
       spreadMethod="pad"
       id="linearGradient103">
      <stop
         style="stop-opacity:1;stop-color:#e7e8e9"
         offset="0"
         id="stop101" />
      <stop
         style="stop-opacity:1;stop-color:#ffffff"
         offset="0.83871509"
         id="stop102" />
      <stop
         style="stop-opacity:1;stop-color:#ffffff"
         offset="1"
         id="stop103" />
    </linearGradient>
    <linearGradient
       x1="0"
       y1="0"
       x2="1"
       y2="0"
       gradientUnits="userSpaceOnUse"
       gradientTransform="matrix(-37.737953,-47.172455,-47.172455,37.737953,403.86151,186.06421)"
       spreadMethod="pad"
       id="linearGradient106">
      <stop
         style="stop-opacity:1;stop-color:#e7e8e9"
         offset="0"
         id="stop104" />
      <stop
         style="stop-opacity:1;stop-color:#ffffff"
         offset="0.83871509"
         id="stop105" />
      <stop
         style="stop-opacity:1;stop-color:#ffffff"
         offset="1"
         id="stop106" />
    </linearGradient>
    <linearGradient
       x1="0"
       y1="0"
       x2="1"
       y2="0"
       gradientUnits="userSpaceOnUse"
       gradientTransform="matrix(-64.921501,-81.151901,-81.151901,64.921501,212.91824,104.58848)"
       spreadMethod="pad"
       id="linearGradient109">
      <stop
         style="stop-opacity:1;stop-color:#e7e8e9"
         offset="0"
         id="stop107" />
      <stop
         style="stop-opacity:1;stop-color:#ffffff"
         offset="0.83871509"
         id="stop108" />
      <stop
         style="stop-opacity:1;stop-color:#ffffff"
         offset="1"
         id="stop109" />
    </linearGradient>
  </defs>
  <sodipodi:namedview
     id="namedview1"
     pagecolor="#ffffff"
     bordercolor="#000000"
     borderopacity="0.25"
     inkscape:showpageshadow="2"
     inkscape:pageopacity="0.0"
     inkscape:pagecheckerboard="0"
     inkscape:deskcolor="#d1d1d1">
    <inkscape:page
       x="0"
       y="0"
       inkscape:label="1"
       id="page1"
       width="708.83197"
       height="712.20398"
       margin="9.6228399 10.317333 15.745334 11.678627"
       bleed="0" />
    <inkscape:page
       x="1542.5333"
       y="0"
       inkscape:label="3"
       id="page72"
       width="793.70133"
       height="782.31333"
       margin="19.3356 8.94533333 7.76666667 8.65525333" />
  </sodipodi:namedview>
  <g
     id="layer-MC0"
     inkscape:groupmode="layer"
     inkscape:label="Livello 1">
    <path
       id="path1"
       d="m 0,0 65.514,37.824 c 12.158,7.019 27.8,2.83 34.82,-9.328 7.018,-12.163 2.829,-27.802 -9.331,-34.82 L 0,-58.867 -0.796,-159.98 c 0,-14.037 -11.451,-25.488 -25.489,-25.488 -14.038,0 -25.49,11.451 -25.49,25.488 l 0.797,234.641 c 0,9.359 4.639,17.394 12.745,22.076 l 191.188,110.38 c 6.732,3.886 14.53,4.334 21.344,1.898 13.049,-3.977 20.736,-17.696 17.176,-30.972 L 158.573,55.246 222.969,-9.151 c 5.792,-5.791 8.318,-13.232 7.249,-21.349 -1.069,-8.119 -5.435,-14.655 -12.527,-18.751 L 14.068,-166.811 v 58.866 l 149.367,86.237 -51.316,51.311 c -6.618,6.62 -9.019,15.58 -6.597,24.622 L 126.648,133.063 0,59.946 Z"
       style="fill:#27a5de;fill-opacity:1;fill-rule:evenodd;stroke:none"
       transform="matrix(1.3333333,0,0,-1.3333333,265.57947,377.1028)" />
    <path
       id="path2"
       d="m 0,0 c 0,-135.29 -109.674,-244.963 -244.963,-244.963 -135.29,0 -244.964,109.673 -244.964,244.963 0,135.29 109.674,244.963 244.964,244.963 C -109.674,244.963 0,135.29 0,0 Z"
       style="fill:none;stroke:#27a5de;stroke-width:25.2;stroke-linecap:butt;stroke-linejoin:miter;stroke-miterlimit:10;stroke-dasharray:none;stroke-opacity:1"
       transform="matrix(1.3333333,0,0,-1.3333333,681.7144,359.16333)" />
    <path
       id="path3"
       d="m 15.29732,-16.788217 -13.7508522,0.0059 c -0.1889344,-0.0031 -0.3529105,0.158566 -0.3499871,0.337421 l 0.00362,0.315516 c -0.00305,0.188934 0.1484856,0.346933 0.3374201,0.349987 l 13.7508522,-0.0059 c 0.188935,0.0031 0.352911,-0.158565 0.355965,-0.347499 l -0.0036,-0.315517 c -0.0029,-0.178855 -0.154464,-0.336853 -0.343398,-0.339907 z m -4.696707,7.8962796 -9.0640554,0.0061 c -0.1889345,-0.00305 -0.3368533,0.1544635 -0.3399078,0.343398 l -3.11e-4,8.20189446 c 0.00105,0.20499173 0.1525872,0.36298992 0.3415217,0.36604442 l 0.3155162,-0.0036214 c 0.1889345,0.0030545 0.3529105,-0.1585651 0.3518635,-0.36355682 l -3.003e-4,-7.53464596 8.3968071,-0.00671 c 0.199014,0.00903 0.336853,-0.1544636 0.339907,-0.343398 l -0.0036,-0.3155163 c 0.0031,-0.1889344 -0.138406,-0.3409548 -0.33742,-0.3499871 z m 20.734468,0.5151115 c 1.44716,-0.7630674 2.402087,-2.2813061 2.407543,-3.9675351 -0.0085,-2.443844 -2.014353,-4.437344 -4.452219,-4.43896 l -9.646916,0.001 c -0.188934,-0.0031 -0.35291,0.158565 -0.349987,0.33742 l 0.0036,0.315516 c -0.0031,0.188935 0.148486,0.346933 0.337421,0.349987 l 9.646916,-10e-4 c 1.891221,0.0044 3.434635,1.56013 3.436205,3.441271 -0.01039,1.901301 -1.545949,3.4566712 -3.43717,3.4522629 l -9.646916,0.00104 c -0.188935,-0.00305 -0.336853,0.1544635 -0.339908,0.343398 l -3.11e-4,8.20189441 c 0.001,0.20499173 0.152587,0.36298993 0.341522,0.36604442 l 9.646916,-0.0010406 c 2.437865,0.0016161 4.453401,-2.01845423 4.460995,-4.46639933 -5.23e-4,-1.6761499 -0.958852,-3.1846156 -2.407712,-3.9349003 z m -2.054417,7.39239822 -8.979667,0.001652 9.64e-4,-6.89353412 8.979668,-0.00165 c 1.891221,0.00441 3.430534,1.5440727 3.436205,3.4412717 -0.0044,1.8912209 -1.545949,3.45667077 -3.43717,3.45226247 z M 45.188631,-16.803229 c -4.624444,0.0096 -8.395544,3.795134 -8.402049,8.4236797 -0.0024,4.6446029 3.773099,8.40972492 8.397543,8.40017227 4.628546,0.0065046 8.403747,-3.76301927 8.40615,-8.40762217 0.0065,-4.6285458 -3.773099,-8.4097248 -8.401644,-8.4162298 z m -0.0056,15.81495058 c -4.077799,0.00676 -7.384849,-3.33066248 -7.387507,-7.39240468 0.0033,-4.0718219 3.310503,-7.3968049 7.388303,-7.4035649 4.055764,0.0074 7.400906,3.326561 7.397587,7.3983826 0.0027,4.0617422 -3.342618,7.4050075 -7.398383,7.39758698 z m 31.592021,-7.89649058 -5.548957,0.00624 c -1.901301,-0.010386 -3.434636,-1.56013 -3.42425,-3.461431 -0.0016,-1.881141 1.523914,-3.442489 3.425214,-3.432103 l 5.548958,-0.0062 c 1.891221,0.0044 3.434636,1.56013 3.436205,3.441271 0.001,0.204992 0.168645,0.358889 0.357579,0.361943 l 0.315516,-0.0036 c 0.188935,0.0031 0.352911,-0.158565 0.351864,-0.363557 -0.0085,-2.443843 -2.018454,-4.453401 -4.45632,-4.455017 l -5.548958,0.0062 c -2.447945,-0.0076 -4.447423,2.008375 -4.438959,4.452218 -0.0076,2.4479455 1.986339,4.4616045 4.434284,4.4691984 l 5.548958,-0.00624 c 1.891221,0.00441 3.430534,1.5440726 3.436205,3.4412715 -0.0044,1.891221 -1.545949,3.45667084 -3.43717,3.45226254 l -5.548957,0.006236 c -1.901301,-0.0103861 -3.428658,-1.57020924 -3.42425,-3.46143034 0.0031,-0.1889344 -0.162667,-0.3689677 -0.351601,-0.3720222 l -0.315516,0.00362 c -0.188935,-0.00305 -0.33873,0.1806002 -0.341784,0.3695346 -0.0076,2.4479451 1.986339,4.46160397 4.434284,4.46919793 l 5.548958,-0.0062359 c 2.437866,0.0016161 4.453401,-2.01845423 4.460995,-4.46639933 -0.0025,-2.4539229 -2.024432,-4.4433214 -4.462298,-4.4449375 z m 15.908136,-7.916366 c -4.624444,0.0096 -8.395544,3.795134 -8.402049,8.4236798 -0.0024,4.6446029 3.773099,8.40972494 8.397543,8.40017229 4.628546,0.0065046 8.403748,-3.76301929 8.406148,-8.40762219 0.007,-4.6285459 -3.773096,-8.4097249 -8.401642,-8.4162299 z m -0.0056,15.8149507 c -4.077799,0.00676 -7.384848,-3.3306625 -7.387507,-7.3924047 0.0033,-4.071822 3.310503,-7.396804 7.388303,-7.403565 4.055764,0.0074 7.400906,3.326561 7.397586,7.3983827 0.003,4.0617422 -3.342617,7.40500752 -7.398382,7.397587 z m 26.144152,-0.002906 -13.08361,0.006536 0.001,-15.4632187 c -0.003,-0.178855 -0.15857,-0.35291 -0.3475,-0.355965 l -0.31552,0.0036 c -0.18893,-0.0031 -0.34881,0.174622 -0.34588,0.353477 l -1.4e-4,16.10433034 c 10e-4,0.20499173 0.15258,0.36298993 0.34152,0.36604442 l 13.75085,-0.0059248 c 0.18893,0.0030545 0.35291,-0.15856509 0.35186,-0.36355682 l 4.8e-4,-0.29945897 c -0.001,-0.20499173 -0.16454,-0.34283111 -0.35347,-0.3458856 z m 15.93914,-15.8139357 -0.31552,0.0036 c -0.0945,-0.0015 -0.18671,0.03914 -0.25059,0.123876 -0.068,0.06868 -0.10982,0.139235 -0.11135,0.233703 l 0.003,9.2529889 c 0.003,3.3944937 -2.78398,6.21035734 -6.19863,6.20167188 -3.43669,0.005496 -6.20848,-2.81011008 -6.21175,-6.20460378 l -0.003,-9.252989 c -0.003,-0.178855 -0.15856,-0.352911 -0.3475,-0.355965 l -0.31551,0.0036 c -0.18894,-0.0031 -0.34881,0.174622 -0.34589,0.353477 l 0.003,9.2529898 c -0.002,3.9773543 3.23845,7.22065907 7.22178,7.21237137 3.9613,0.0058933 7.22066,-3.23845427 7.22246,-7.21580867 l -0.003,-9.2529895 c -0.003,-0.178855 -0.15447,-0.336853 -0.3475,-0.355965 z m 11.37535,8.0714368 -0.30953,-0.00646 c -0.19492,0.00702 -0.36299,0.1525873 -0.36195,0.357579 l 8.7e-4,8.03909664 c 0.001,0.20499173 0.16267,0.36896777 0.35758,0.36194285 l 0.30954,0.006458 c 0.19491,-0.0070249 0.35889,-0.1686445 0.35784,-0.37363623 l -8.7e-4,-8.03909666 c -0.001,-0.2049917 -0.15856,-0.3529105 -0.35348,-0.3458856 z m 6.72167,-8.0714238 -13.75085,0.0059 c -0.18894,-0.0031 -0.34881,0.174623 -0.34589,0.353478 l 0.004,0.315516 c -0.003,0.188934 0.14849,0.346933 0.33742,0.349987 l 13.75086,-0.0059 c 0.18893,0.0031 0.35291,-0.158565 0.35596,-0.347499 l -0.004,-0.315516 c -0.003,-0.178856 -0.15857,-0.352911 -0.3475,-0.355966 z m 4.66169,0.0023 -0.31552,0.0036 c -0.18894,-0.0031 -0.34881,0.174622 -0.34589,0.353477 l -1.4e-4,16.10432964 c 0.001,0.20499173 0.15259,0.36298993 0.34152,0.36604442 l 0.31552,-0.0036214 c 0.18893,0.0030545 0.35291,-0.15856509 0.35186,-0.36355682 l 6e-5,-16.10429284 c -0.003,-0.178855 -0.15856,-0.35291 -0.34749,-0.355965 z m 12.4199,-0.0016 c -4.62445,0.0096 -8.39555,3.795133 -8.40205,8.4236787 -0.002,4.6446029 3.7731,8.40972492 8.39754,8.40017227 4.62855,0.0065046 8.40375,-3.76301927 8.40615,-8.40762217 0.007,-4.6285448 -3.7731,-8.4097248 -8.40164,-8.4162288 z m -0.006,15.81494958 c -4.0778,0.00676 -7.38485,-3.33066248 -7.38751,-7.39240468 0.003,-4.0718209 3.3105,-7.3968039 7.3883,-7.4035649 4.05577,0.0074 7.40091,3.326561 7.39759,7.3983825 0.003,4.0617423 -3.34262,7.4050076 -7.39838,7.39758708 z m 19.73873,-7.62692888 -6.67933,-8.0351297 c -0.0608,-0.104198 -0.15751,-0.147919 -0.25198,-0.149446 l -0.40998,0.0021 c -0.0261,-0.0019 -0.022,0.01418 -0.0482,0.0123 -0.0161,0.0041 -0.0161,0.0041 -0.0161,0.0041 -0.0261,-0.0019 -0.0261,-0.0019 -0.0541,0.02238 0,0 0,0 -0.0261,-0.0019 0,0 -0.0161,0.0041 -0.05,0.03844 -0.022,0.01418 -0.022,0.01418 -0.05,0.03844 -0.0179,0.03024 -0.0179,0.03024 -0.062,0.0586 0.004,0.01606 -0.022,0.01418 -0.0239,0.04032 -0.002,0.02614 -0.002,0.02614 -0.002,0.02614 -0.0119,0.02016 -0.0119,0.02016 -0.0138,0.0463 0,0 0,0 -0.002,0.02614 0,0 -0.002,0.02614 0.002,0.04219 l -1.4e-4,16.1043296 c 0.001,0.20499172 0.15259,0.36298992 0.34152,0.36604442 l 0.31552,-0.0036214 c 0.18893,0.0030545 0.35291,-0.1585651 0.35186,-0.36355682 l 0.003,-14.7537748 5.73915,6.9325458 0.18213,0.2442623 6.49123,7.80094761 c 0.0668,0.09411822 0.16349,0.13783938 0.25796,0.13936663 l 0.40998,-0.0020941 c 0.12061,0.0034035 0.25879,-0.09176177 0.31447,-0.20861313 0.0617,-0.12693076 0.0408,-0.2755476 -0.0562,-0.38759934 z m 6.40956,-8.1884067 -0.31552,0.0036 c -0.18893,-0.0031 -0.36486,0.178724 -0.36194,0.357579 l -0.001,8.0652331 c 0.001,0.2049917 0.17052,0.3327517 0.35945,0.3358062 l 0.31552,-0.00362 c 0.18894,0.00305 0.35104,-0.1324284 0.34999,-0.3374202 l 0.001,-8.0652331 c -0.003,-0.178855 -0.15857,-0.352911 -0.3475,-0.355965 z m 23.53823,7.9173628 -5.54896,0.00624 c -1.9013,-0.010386 -3.43464,-1.5601298 -3.42425,-3.4614298 -0.002,-1.881142 1.52391,-3.44249 3.42522,-3.432104 l 5.54895,-0.0062 c 1.89122,0.0044 3.43464,1.56013 3.43621,3.441272 0.001,0.204991 0.16864,0.358888 0.35758,0.361943 l 0.31551,-0.0036 c 0.18894,0.0031 0.35291,-0.158565 0.35187,-0.363557 -0.008,-2.443843 -2.01846,-4.453401 -4.45632,-4.455017 l -5.54896,0.0062 c -2.44795,-0.0076 -4.44742,2.008375 -4.43896,4.452219 -0.008,2.4479443 1.98634,4.4616032 4.43428,4.4691972 l 5.54896,-0.00624 c 1.89122,0.00441 3.43054,1.5440727 3.43621,3.4412716 -0.004,1.891221 -1.54595,3.45667084 -3.43717,3.45226253 l -5.54896,0.006236 c -1.9013,-0.0103861 -3.42866,-1.57020923 -3.42425,-3.46143033 0.003,-0.1889345 -0.16267,-0.3689677 -0.3516,-0.3720222 l -0.31552,0.00362 c -0.18893,-0.00305 -0.33873,0.1806002 -0.34178,0.3695347 -0.008,2.4479451 1.98634,4.46160397 4.43428,4.46919792 l 5.54896,-0.0062358 c 2.43787,0.0016161 4.4534,-2.01845422 4.461,-4.46639932 -0.002,-2.4539229 -2.02444,-4.4433214 -4.4623,-4.4449376 z m 22.45861,8.33638929 -3.68863,-4.46295779 c 2.27428,-0.9401329 3.78842,-3.1485709 3.78559,-5.6708243 -0.001,-3.352299 -2.74635,-6.097698 -6.10873,-6.102631 l -7.57684,0.0025 c 0,0 -0.004,-0.01606 -0.004,-0.01606 l -0.40589,0.01815 c -0.0261,-0.0019 -0.0261,-0.0019 -0.0523,-0.0038 -0.0161,0.0041 -0.0161,0.0041 -0.0161,0.0041 -0.0261,-0.0019 -0.0261,-0.0019 -0.0541,0.02238 0,0 0,0 -0.0261,-0.0019 0,0 -0.0161,0.0041 -0.05,0.03844 -0.022,0.01418 -0.022,0.01418 -0.05,0.03844 -0.0179,0.03024 -0.0179,0.03024 -0.062,0.0586 0.004,0.01606 -0.022,0.01418 -0.0239,0.04032 -0.002,0.02614 -0.002,0.02614 -0.002,0.02614 -0.012,0.02016 -0.012,0.02016 -0.0138,0.0463 0,0 0,0 -0.002,0.02614 0,0 -0.002,0.02614 0.002,0.04219 l 0.004,0.315516 c -0.003,0.188934 0.14848,0.346933 0.33742,0.349987 l 0.0945,0.0015 8.42677,10.1887229 c -0.1628,-0.00118 -0.36369,0.015926 -0.52648,0.014748 l -7.98683,0.00462 c -0.18893,-0.00305 -0.34693,0.1484856 -0.34178,0.3695346 l -0.007,4.85967408 c 0.001,0.20499173 0.15258,0.36298993 0.34152,0.36604442 l 0.31551,-0.0036214 c 0.18894,0.0030545 0.35291,-0.15856509 0.35187,-0.36355682 l 0.009,-4.21856218 7.31957,-0.00523 c 0.43612,-2.179e-4 0.86404,-0.03255 1.2916,-0.1332132 l 3.79575,4.5809874 c 0.0668,0.09411821 0.1635,0.13783938 0.25797,0.13936662 l 0.40998,-0.0020941 c 0.1206,0.0034035 0.25879,-0.09176177 0.31447,-0.20861312 0.0616,-0.12693077 0.0408,-0.2755476 -0.0581,-0.36146268 z m -12.58866,-15.23209809 6.56794,-0.0014 c 2.81574,0.0077 5.09447,2.299289 5.09272,5.104944 0.001,2.1805999 -1.39982,4.1291985 -3.43019,4.8188734 z m 30.42568,14.79179039 -13.08361,0.006536 0.001,-15.46321839 c -0.003,-0.178855 -0.15857,-0.352911 -0.3475,-0.355965 l -0.31552,0.0036 c -0.18893,-0.0031 -0.3488,0.174623 -0.34588,0.353478 l -1.4e-4,16.10433002 c 0.001,0.20499173 0.15258,0.36298993 0.34152,0.36604443 l 13.75085,-0.0059248 c 0.18893,0.0030545 0.35291,-0.15856509 0.35186,-0.36355682 l 4.8e-4,-0.29945896 c -0.001,-0.20499173 -0.16454,-0.34283111 -0.35347,-0.34588561 z m 0,0"
       style="fill:#27a5de;fill-opacity:1;fill-rule:nonzero;stroke:none"
       aria-label="FB&#10;O S&#10;ol&#10;ution Srl"
       transform="matrix(1.1468129,-0.68014551,0.68014551,1.1468129,307.25027,638.91907)" />
    <path
       id="path4"
       d="m 0,0 -11.816,-7.008 c -0.169,-0.1 -0.224,-0.317 -0.123,-0.486 l 0.154,-0.26 c 0.099,-0.169 0.316,-0.225 0.485,-0.124 l 11.817,7.007 c 0.169,0.1 0.224,0.318 0.124,0.487 l -0.155,0.26 C 0.387,0.045 0.169,0.1 0,0 Z m 0.001,-9.18 -7.789,-4.619 c -0.169,-0.101 -0.224,-0.318 -0.124,-0.487 l 4.183,-7.052 c 0.1,-0.169 0.316,-0.224 0.485,-0.124 l 0.261,0.154 c 0.169,0.1 0.223,0.317 0.124,0.486 l -3.848,6.487 7.225,4.284 c 0.168,0.1 0.223,0.317 0.123,0.486 l -0.155,0.26 C 0.387,-9.136 0.169,-9.081 0.001,-9.18 Z"
       style="fill:none;stroke:#010101;stroke-width:1;stroke-linecap:butt;stroke-linejoin:miter;stroke-miterlimit:10;stroke-dasharray:none;stroke-opacity:1"
       transform="matrix(1.3333333,0,0,-1.3333333,313.362,609.25147)" />
    <path
       id="path5"
       d="M 0,0 C 0.855,1.388 0.897,3.175 0.043,4.616 -1.21,6.729 -3.948,7.428 -6.062,6.174 l -8.29,-4.917 c -0.169,-0.1 -0.224,-0.317 -0.124,-0.486 l 0.155,-0.259 c 0.1,-0.169 0.317,-0.225 0.486,-0.125 l 8.29,4.917 C -3.912,6.272 -1.797,5.732 -0.828,4.099 0.14,2.466 -0.4,0.351 -2.033,-0.617 l -8.29,-4.917 c -0.169,-0.1 -0.225,-0.318 -0.124,-0.487 l 4.182,-7.052 c 0.1,-0.168 0.317,-0.224 0.486,-0.124 l 8.29,4.917 c 2.113,1.254 2.813,3.991 1.56,6.104 C 3.216,-0.735 1.628,0.084 0,0 Z m 1.994,-7.409 -7.724,-4.582 -3.512,5.922 7.724,4.581 C 0.115,-0.52 2.231,-1.06 3.199,-2.692 4.168,-4.325 3.627,-6.441 1.994,-7.409 Z"
       style="fill:none;stroke:#010101;stroke-width:1;stroke-linecap:butt;stroke-linejoin:miter;stroke-miterlimit:10;stroke-dasharray:none;stroke-opacity:1"
       transform="matrix(1.3333333,0,0,-1.3333333,337.4948,607.9644)" />
    <path
       id="path6"
       d="m 0,0 c -3.984,-2.364 -5.305,-7.528 -2.941,-11.513 2.364,-3.986 7.529,-5.305 11.514,-2.941 3.985,2.363 5.304,7.528 2.941,11.514 C 9.149,1.044 3.985,2.363 0,0 Z m 8.057,-13.583 c -3.506,-2.08 -8.049,-0.919 -10.127,2.586 -2.079,3.505 -0.919,8.047 2.587,10.126 3.504,2.079 8.047,0.919 10.126,-2.586 2.079,-3.505 0.918,-8.048 -2.586,-10.126 z"
       style="fill:none;stroke:#010101;stroke-width:1;stroke-linecap:butt;stroke-linejoin:miter;stroke-miterlimit:10;stroke-dasharray:none;stroke-opacity:1"
       transform="matrix(1.3333333,0,0,-1.3333333,347.6536,588.9136)" />
    <path
       id="path7"
       d="m 0,0 -4.765,-2.826 c -1.632,-0.968 -3.749,-0.428 -4.716,1.204 -0.969,1.633 -0.428,3.749 1.205,4.717 l 4.764,2.826 C -1.88,6.889 0.236,6.35 1.205,4.717 1.305,4.548 1.522,4.492 1.69,4.592 l 0.261,0.155 c 0.168,0.099 0.225,0.317 0.124,0.485 -1.253,2.113 -3.99,2.812 -6.103,1.56 L -8.793,3.966 c -2.112,-1.253 -2.811,-3.991 -1.559,-6.104 1.253,-2.112 3.992,-2.811 6.103,-1.558 l 4.766,2.825 C 2.148,0.098 4.265,-0.442 5.233,-2.075 6.201,-3.708 5.66,-5.824 4.028,-6.792 l -4.765,-2.826 c -1.632,-0.968 -3.748,-0.428 -4.717,1.205 -0.1,0.168 -0.317,0.224 -0.485,0.124 L -6.2,-8.443 c -0.168,-0.1 -0.224,-0.318 -0.123,-0.486 1.252,-2.113 3.99,-2.812 6.102,-1.559 l 4.766,2.825 C 6.657,-6.41 7.356,-3.672 6.104,-1.559 4.851,0.553 2.112,1.253 0,0 Z"
       style="fill:none;stroke:#010101;stroke-width:1;stroke-linecap:butt;stroke-linejoin:miter;stroke-miterlimit:10;stroke-dasharray:none;stroke-opacity:1"
       transform="matrix(1.3333333,0,0,-1.3333333,389.25387,576.48267)" />
    <path
       id="path8"
       d="m 0,0 c -3.985,-2.364 -5.305,-7.528 -2.941,-11.513 2.363,-3.986 7.528,-5.305 11.513,-2.941 3.986,2.363 5.305,7.528 2.942,11.514 C 9.148,1.043 3.984,2.363 0,0 Z m 8.057,-13.583 c -3.506,-2.08 -8.049,-0.919 -10.128,2.586 -2.079,3.505 -0.918,8.047 2.588,10.126 3.504,2.079 8.046,0.919 10.126,-2.586 2.078,-3.505 0.918,-8.048 -2.586,-10.126 z"
       style="fill:none;stroke:#010101;stroke-width:1;stroke-linecap:butt;stroke-linejoin:miter;stroke-miterlimit:10;stroke-dasharray:none;stroke-opacity:1"
       transform="matrix(1.3333333,0,0,-1.3333333,402.1224,556.6096)" />
    <path
       id="path9"
       d="m 0,0 -11.25,-6.673 -7.876,13.279 c -0.1,0.168 -0.317,0.224 -0.485,0.124 l -0.261,-0.155 c -0.169,-0.1 -0.224,-0.317 -0.124,-0.485 l 8.211,-13.844 c 0.099,-0.169 0.316,-0.225 0.485,-0.125 l 11.817,7.008 c 0.169,0.1 0.224,0.318 0.125,0.487 l -0.155,0.26 C 0.387,0.044 0.17,0.1 0,0 Z"
       style="fill:none;stroke:#010101;stroke-width:1;stroke-linecap:butt;stroke-linejoin:miter;stroke-miterlimit:10;stroke-dasharray:none;stroke-opacity:1"
       transform="matrix(1.3333333,0,0,-1.3333333,442.83853,556.9436)" />
    <path
       id="path10"
       d="m 0,0 -0.261,-0.155 c -0.081,-0.048 -0.138,-0.125 -0.162,-0.217 -0.023,-0.091 -0.01,-0.188 0.038,-0.269 l 4.706,-7.935 c 1.747,-2.946 0.773,-6.764 -2.175,-8.512 -2.945,-1.746 -6.763,-0.772 -8.51,2.174 l -4.707,7.936 c -0.1,0.168 -0.317,0.224 -0.486,0.124 l -0.26,-0.155 c -0.168,-0.099 -0.224,-0.317 -0.124,-0.485 l 4.706,-7.936 c 2.032,-3.426 6.472,-4.56 9.898,-2.528 3.426,2.032 4.562,6.472 2.529,9.898 L 0.486,-0.124 C 0.386,0.044 0.168,0.1 0,0 Z"
       style="fill:none;stroke:#010101;stroke-width:1;stroke-linecap:butt;stroke-linejoin:miter;stroke-miterlimit:10;stroke-dasharray:none;stroke-opacity:1"
       transform="matrix(1.3333333,0,0,-1.3333333,450.37373,527.99307)" />
    <path
       id="path11"
       d="m 0,0 -0.261,-0.154 c -0.168,-0.1 -0.223,-0.318 -0.124,-0.486 l 4.106,-6.922 c 0.1,-0.169 0.318,-0.225 0.486,-0.125 l 0.26,0.154 c 0.169,0.1 0.224,0.318 0.125,0.487 L 0.486,-0.124 C 0.386,0.044 0.169,0.1 0,0 Z M 1.673,10.348 -10.144,3.34 c -0.168,-0.099 -0.223,-0.317 -0.124,-0.485 l 0.155,-0.26 C -10.014,2.426 -9.796,2.37 -9.627,2.47 L 2.189,9.478 c 0.169,0.1 0.225,0.318 0.125,0.487 l -0.155,0.26 C 2.06,10.394 1.842,10.448 1.673,10.348 Z"
       style="fill:none;stroke:#010101;stroke-width:1;stroke-linecap:butt;stroke-linejoin:miter;stroke-miterlimit:10;stroke-dasharray:none;stroke-opacity:1"
       transform="matrix(1.3333333,0,0,-1.3333333,468.89587,529.48333)" />
    <path
       id="path12"
       d="m 0,0 -0.262,-0.154 c -0.168,-0.1 -0.222,-0.318 -0.123,-0.486 l 8.211,-13.844 c 0.1,-0.169 0.317,-0.224 0.486,-0.124 l 0.26,0.154 c 0.168,0.1 0.224,0.317 0.123,0.486 L 0.485,-0.124 C 0.385,0.044 0.168,0.1 0,0 Z"
       style="fill:none;stroke:#010101;stroke-width:1;stroke-linecap:butt;stroke-linejoin:miter;stroke-miterlimit:10;stroke-dasharray:none;stroke-opacity:1"
       transform="matrix(1.3333333,0,0,-1.3333333,476.47133,512.51587)" />
    <path
       id="path13"
       d="m 0,0 c -3.986,-2.364 -5.306,-7.528 -2.942,-11.513 2.363,-3.986 7.528,-5.305 11.514,-2.941 3.985,2.363 5.304,7.528 2.941,11.514 C 9.148,1.044 3.984,2.363 0,0 Z m 8.056,-13.583 c -3.506,-2.08 -8.049,-0.919 -10.128,2.586 -2.078,3.505 -0.918,8.047 2.588,10.126 3.505,2.079 8.047,0.919 10.126,-2.586 2.079,-3.505 0.919,-8.048 -2.586,-10.126 z"
       style="fill:none;stroke:#010101;stroke-width:1;stroke-linecap:butt;stroke-linejoin:miter;stroke-miterlimit:10;stroke-dasharray:none;stroke-opacity:1"
       transform="matrix(1.3333333,0,0,-1.3333333,490.72133,504.06467)" />
    <path
       id="path14"
       d="m 0,0 -9.844,3.518 c -0.099,0.035 -0.21,0.024 -0.301,-0.03 l -0.337,-0.2 C -10.502,3.276 -10.518,3.264 -10.534,3.25 -10.539,3.246 -10.543,3.242 -10.547,3.237 -10.56,3.227 -10.57,3.215 -10.58,3.202 -10.583,3.198 -10.587,3.194 -10.59,3.19 -10.602,3.174 -10.611,3.156 -10.621,3.139 -10.623,3.134 -10.624,3.13 -10.626,3.125 -10.633,3.11 -10.638,3.095 -10.643,3.08 -10.644,3.074 -10.646,3.069 -10.646,3.063 -10.65,3.045 -10.653,3.028 -10.655,3.01 c 0,-0.003 0,-0.005 -0.001,-0.009 -10e-4,-0.017 0,-0.035 0.001,-0.052 0,-0.003 10e-4,-0.005 10e-4,-0.008 10e-4,-0.006 0.003,-0.012 0.004,-0.018 0.002,-0.015 0.005,-0.03 0.01,-0.045 0.001,-0.006 0.003,-0.011 0.005,-0.018 0.008,-0.02 0.016,-0.038 0.027,-0.056 0.001,-10e-4 0.001,-10e-4 0.001,-0.002 l 8.211,-13.844 c 0.099,-0.169 0.317,-0.225 0.486,-0.125 l 0.26,0.155 c 0.169,0.1 0.224,0.317 0.125,0.486 l -7.523,12.684 8.47,-3.027 0.292,-0.105 9.554,-3.414 c 0.099,-0.035 0.21,-0.025 0.3,0.029 l 0.338,0.2 c 0.118,0.071 0.185,0.203 0.172,0.34 -0.013,0.137 -0.103,0.254 -0.234,0.3 z M 1.334,10.296 1.074,10.142 C 0.904,10.042 0.85,9.824 0.949,9.656 L 5.055,2.734 C 5.154,2.565 5.372,2.509 5.541,2.609 l 0.26,0.155 C 5.97,2.863 6.025,3.082 5.926,3.25 L 1.82,10.172 c -0.099,0.169 -0.318,0.224 -0.486,0.124 z"
       style="fill:none;stroke:#010101;stroke-width:1;stroke-linecap:butt;stroke-linejoin:miter;stroke-miterlimit:10;stroke-dasharray:none;stroke-opacity:1"
       transform="matrix(1.3333333,0,0,-1.3333333,518.91667,500.0152)" />
    <path
       id="path15"
       d="m 0,0 -4.766,-2.826 c -1.631,-0.968 -3.748,-0.428 -4.715,1.204 -0.969,1.633 -0.428,3.749 1.204,4.717 l 4.765,2.826 C -1.88,6.889 0.236,6.349 1.205,4.716 1.305,4.548 1.522,4.492 1.69,4.592 L 1.951,4.747 C 2.119,4.846 2.175,5.064 2.075,5.232 0.822,7.345 -1.916,8.044 -4.028,6.792 L -8.794,3.965 c -2.111,-1.253 -2.811,-3.99 -1.559,-6.103 1.253,-2.112 3.992,-2.812 6.104,-1.559 l 4.766,2.826 C 2.148,0.097 4.265,-0.443 5.233,-2.075 6.201,-3.708 5.66,-5.824 4.028,-6.792 l -4.765,-2.826 c -1.632,-0.968 -3.748,-0.428 -4.717,1.205 -0.1,0.168 -0.317,0.224 -0.485,0.124 L -6.2,-8.444 c -0.168,-0.099 -0.224,-0.317 -0.124,-0.485 1.253,-2.113 3.991,-2.813 6.103,-1.56 l 4.765,2.826 C 6.656,-6.41 7.356,-3.672 6.103,-1.559 4.851,0.553 2.112,1.253 0,0 Z"
       style="fill:none;stroke:#010101;stroke-width:1;stroke-linecap:butt;stroke-linejoin:miter;stroke-miterlimit:10;stroke-dasharray:none;stroke-opacity:1"
       transform="matrix(1.3333333,0,0,-1.3333333,553.0716,479.3264)" />
    <path
       id="path16"
       d="m 0,0 -5.453,1.949 c 1.483,1.97 1.643,4.635 0.367,6.789 -1.721,2.9 -5.478,3.859 -8.379,2.139 l -6.522,-3.868 -0.002,-0.001 -0.339,-0.201 c -0.018,-0.011 -0.034,-0.023 -0.051,-0.037 -0.004,-0.004 -0.009,-0.009 -0.014,-0.014 -0.01,-0.01 -0.022,-0.022 -0.031,-0.035 -0.004,-0.004 -0.008,-0.008 -0.01,-0.012 -0.011,-0.016 -0.022,-0.033 -0.031,-0.051 L -20.471,6.645 C -20.478,6.629 -20.482,6.614 -20.486,6.599 -20.488,6.594 -20.49,6.588 -20.491,6.583 -20.495,6.565 -20.498,6.547 -20.5,6.529 c 0.001,-0.003 0,-0.005 0,-0.008 -0.002,-0.017 -0.001,-0.035 0,-0.053 0.001,-0.003 0.002,-0.005 0.002,-0.008 0.001,-0.006 0.002,-0.012 0.003,-0.017 0.002,-0.016 0.006,-0.031 0.012,-0.046 0.001,-0.006 0.003,-0.011 0.004,-0.017 0.008,-0.02 0.016,-0.039 0.027,-0.057 0,0 0.001,-0.001 0.001,-0.002 l 0.154,-0.259 c 0.1,-0.169 0.318,-0.225 0.485,-0.125 l 0.073,0.042 12.447,-4.448 C -7.437,1.424 -7.586,1.323 -7.742,1.23 l -6.863,-4.07 c -0.17,-0.1 -0.225,-0.317 -0.124,-0.486 l 2.489,-4.197 c 0.099,-0.168 0.316,-0.225 0.485,-0.124 l 0.261,0.154 c 0.168,0.1 0.223,0.318 0.124,0.486 l -2.154,3.632 6.297,3.735 c 0.376,0.223 0.725,0.483 1.041,0.776 l 5.61,-2.005 c 0.098,-0.035 0.209,-0.025 0.301,0.029 l 0.337,0.2 C 0.18,-0.569 0.247,-0.437 0.234,-0.3 0.221,-0.163 0.13,-0.045 0,0 Z m -18.607,6.65 5.659,3.357 c 2.42,1.435 5.555,0.634 6.991,-1.786 C -4.848,6.35 -5.062,3.954 -6.461,2.31 Z"
       style="fill:none;stroke:#010101;stroke-width:1;stroke-linecap:butt;stroke-linejoin:miter;stroke-miterlimit:10;stroke-dasharray:none;stroke-opacity:1"
       transform="matrix(1.3333333,0,0,-1.3333333,584.50267,473.59533)" />
    <path
       id="path17"
       d="m 0,0 -11.251,-6.673 -7.875,13.279 c -0.101,0.168 -0.317,0.224 -0.486,0.124 l -0.261,-0.154 c -0.168,-0.1 -0.224,-0.318 -0.124,-0.486 l 8.211,-13.844 c 0.099,-0.169 0.317,-0.225 0.486,-0.124 l 11.817,7.007 c 0.169,0.1 0.224,0.319 0.124,0.487 l -0.155,0.26 C 0.387,0.045 0.169,0.1 0,0 Z"
       style="fill:none;stroke:#010101;stroke-width:1;stroke-linecap:butt;stroke-linejoin:miter;stroke-miterlimit:10;stroke-dasharray:none;stroke-opacity:1"
       transform="matrix(1.3333333,0,0,-1.3333333,604.6484,460.9788)" />
    <g
       id="g75"
       clip-path="url(#clipPath76)">
      <path
         d="M 288.195,287.714 C 220,356.614 419.714,550.516 486.531,480.325 554.725,411.436 355.028,217.527 288.195,287.714"
         transform="matrix(1.3333333,0,0,-1.3333333,1542.5333,782.31333)"
         style="fill:url(#radialGradient74);stroke:none"
         opacity="1"
         clip-path="url(#clipPath74)"
         id="path75" />
    </g>
    <g
       id="g79"
       clip-path="url(#clipPath80)">
      <path
         d="M 322.632,229.995 C 254.446,298.9 454.142,492.797 520.976,422.608 589.159,353.714 389.468,159.803 322.632,229.995"
         transform="matrix(1.3333333,0,0,-1.3333333,1542.5333,782.31333)"
         style="fill:url(#radialGradient78);stroke:none"
         opacity="1"
         clip-path="url(#clipPath78)"
         id="path79" />
    </g>
    <path
       id="path81"
       d="m 0,0 c -7.152,0 -15.935,5.071 -19.517,11.268 l -39.044,67.634 c -3.581,6.197 -3.581,16.337 0,22.536 l 39.044,67.631 c 3.582,6.196 12.365,11.265 19.517,11.265 h 78.095 c 7.156,0 15.941,-5.069 19.519,-11.265 C 151.634,74.46 151.622,105.864 97.611,11.268 94.036,5.071 85.251,0 78.095,0 Z"
       style="fill:#ffffff;fill-opacity:1;fill-rule:nonzero;stroke:none"
       transform="matrix(1.3333333,0,0,-1.3333333,2143.1233,363.86613)" />
    <path
       id="path82"
       d="m 0,0 c -7.154,0 -15.939,5.071 -19.515,11.266 l -39.048,67.633 c -3.578,6.196 -3.578,16.337 0,22.535 l 39.048,67.631 c 3.576,6.196 12.361,11.268 19.515,11.268 h 78.099 c 7.152,0 15.935,-5.072 19.511,-11.268 C 151.633,74.458 151.624,105.86 97.607,11.266 94.034,5.071 85.251,0 78.099,0 Z"
       style="fill:#2ba9e0;fill-opacity:1;fill-rule:nonzero;stroke:none"
       transform="matrix(1.3333333,0,0,-1.3333333,2140.6765,366.3104)" />
    <path
       id="path83"
       d="m 0,0 c -6.362,0 -14.171,4.51 -17.355,10.021 l -34.72,60.14 c -12.055,15.053 30.024,66.72 34.718,80.179 3.186,5.512 10.995,10.019 17.357,10.019 h 69.444 c 6.365,0 14.175,-4.507 17.357,-10.02 C 134.835,66.214 134.826,94.134 86.798,10.021 83.619,4.51 75.809,0 69.444,0 Z"
       style="fill:#ffffff;fill-opacity:1;fill-rule:nonzero;stroke:none"
       transform="matrix(1.3333333,0,0,-1.3333333,2144.4923,568.17813)" />
    <path
       id="path84"
       d="m 0,0 c -6.364,0 -14.173,4.51 -17.353,10.019 l -34.722,60.142 c -12.055,15.053 30.026,66.72 34.719,80.179 3.183,5.51 10.992,10.019 17.356,10.019 h 69.445 c 6.362,0 14.172,-4.509 17.354,-10.02 C 134.838,66.214 134.827,94.132 86.796,10.019 83.617,4.51 75.807,0 69.445,0 Z"
       style="fill:#2ba9e0;fill-opacity:1;fill-rule:nonzero;stroke:none"
       transform="matrix(1.3333333,0,0,-1.3333333,2142.3161,570.3544)" />
    <path
       id="path85"
       d="m 0,0 c -15.706,0 -34.985,11.131 -42.836,24.729 l -85.709,148.455 c -7.855,13.601 -7.855,35.86 0,49.464 l 85.709,148.45 c 7.851,13.604 27.13,24.734 42.836,24.734 h 171.422 c 15.703,0 34.979,-11.13 42.832,-24.734 l 85.711,-148.45 c 7.853,-13.604 7.853,-35.863 0,-49.464 C 174.268,-37.896 245.616,3.321 0,0"
       style="fill:#2ba9e0;fill-opacity:1;fill-rule:nonzero;stroke:none"
       transform="matrix(1.3333333,0,0,-1.3333333,1730.4371,685.2344)" />
    <path
       id="path86"
       d="m 0,0 c -14.478,0 -32.242,10.259 -39.48,22.791 l -78.989,136.81 c -7.237,12.536 -7.237,33.051 0,45.59 l 78.989,136.808 c 7.238,12.539 25.002,22.792 39.48,22.792 h 157.979 c 14.473,0 32.233,-10.253 39.472,-22.792 L 276.44,205.191 c 7.239,-12.539 7.239,-33.054 0,-45.59 C 161.219,-34.374 225.567,2.798 0,0"
       style="fill:#ffffff;fill-opacity:1;fill-rule:nonzero;stroke:none"
       transform="matrix(1.3333333,0,0,-1.3333333,1898.3521,494.15573)" />
    <path
       id="path88"
       d="m 263.15,577.197 c -14.476,0 -32.243,-10.257 -39.479,-22.793 v 0 L 144.684,417.593 c -7.241,-12.535 -7.241,-33.05 0,-45.582 v 0 l 78.987,-136.813 c 7.236,-12.532 25.003,-22.791 39.479,-22.791 v 0 c 33.256,0.412 60.211,-0.044 82.368,-0.5 v 0 c 128.132,-2.639 95.845,-5.278 194.079,160.104 v 0 c 7.231,12.532 7.231,33.047 0,45.582 v 0 l -78.99,136.811 c -7.238,12.536 -25.002,22.793 -39.478,22.793 v 0 z"
       transform="matrix(1.3333333,0,0,-1.3333333,1542.5333,782.31333)"
       style="fill:url(#linearGradient88);stroke:none" />
    <path
       id="path89"
       d="m 0,0 c -13.118,-1.901 -29.067,40.414 -35.462,47.766 -8.199,10.411 20.472,45.38 23.642,54.594 4.916,12.305 49.539,4.961 59.104,6.822 4.331,-0.002 9.645,-3.071 11.814,-6.823 C 91.717,45.504 91.714,63.667 59.096,6.82 54.182,-5.484 9.564,1.859 0,0"
       style="fill:#ffffff;fill-opacity:1;fill-rule:nonzero;stroke:none"
       transform="matrix(1.3333333,0,0,-1.3333333,1632.6211,390.12547)" />
    <path
       id="path91"
       d="m 53.239,394.838 c -3.17,-9.212 -31.84,-44.183 -23.641,-54.592 v 0 c 6.396,-7.353 22.342,-49.67 35.462,-47.767 v 0 c 3.05,0.593 9.668,0.25 17.427,-0.094 v 0 c 16.562,-0.733 38.324,-1.466 41.669,6.914 v 0 c 32.614,56.845 32.62,38.684 0.002,95.538 v 0 c -2.166,3.752 -7.485,6.822 -11.816,6.824 v 0 c -3.052,-0.594 -9.672,-0.251 -17.431,0.092 v 0 c -4.697,0.208 -9.81,0.415 -14.804,0.415 v 0 c -12.618,0 -24.469,-1.326 -26.868,-7.33"
       transform="matrix(1.3333333,0,0,-1.3333333,1542.5333,782.31333)"
       style="fill:url(#linearGradient91);stroke:none" />
    <path
       id="path92"
       d="m 0,0 c -12.229,-1.771 -27.099,37.682 -33.06,44.537 -7.647,9.705 19.086,42.307 22.042,50.897 4.58,11.477 46.185,4.626 55.102,6.363 4.038,-0.002 8.995,-2.863 11.014,-6.364 C 85.424,42.859 85.417,58.927 55.096,6.36 50.519,-5.114 8.915,1.734 0,0"
       style="fill:#ffffff;fill-opacity:1;fill-rule:nonzero;stroke:none"
       transform="matrix(1.3333333,0,0,-1.3333333,1881.5389,660.8308)" />
    <path
       id="path94"
       d="m 242.2,185.511 c -2.954,-8.59 -29.688,-41.196 -22.041,-50.899 v 0 c 5.961,-6.854 20.83,-46.308 33.059,-44.537 v 0 c 2.843,0.552 9.013,0.233 16.247,-0.088 v 0 c 15.443,-0.683 35.732,-1.367 38.851,6.448 v 0 c 30.321,52.568 30.323,36.499 0.002,89.075 v 0 c -2.019,3.497 -6.976,6.36 -11.017,6.362 v 0 c -2.844,-0.554 -9.016,-0.234 -16.25,0.085 v 0 c -4.379,0.194 -9.147,0.388 -13.804,0.388 v 0 c -11.764,0 -22.812,-1.237 -25.047,-6.834"
       transform="matrix(1.3333333,0,0,-1.3333333,1542.5333,782.31333)"
       style="fill:url(#linearGradient94);stroke:none" />
    <path
       id="path95"
       d="M 0,0 C -6.336,0 -14.108,4.487 -17.276,9.972 L -51.84,69.838 c -11.997,14.989 29.887,66.415 34.561,79.815 3.171,5.485 10.943,9.972 17.279,9.972 h 69.128 c 6.332,0 14.106,-4.487 17.274,-9.974 C 134.219,65.908 134.21,93.704 86.4,9.972 83.234,4.487 75.46,0 69.128,0 Z"
       style="fill:#ffffff;fill-opacity:1;fill-rule:nonzero;stroke:none"
       transform="matrix(1.3333333,0,0,-1.3333333,1683.5444,617.55947)" />
    <path
       id="path97"
       d="m 104.132,280.153 c -6.333,0 -14.11,-4.489 -17.277,-9.973 v 0 C 82.184,256.782 40.297,205.351 52.295,190.365 v 0 l 34.562,-59.866 c 3.165,-5.483 10.942,-9.973 17.275,-9.973 v 0 h 69.13 c 6.335,0 14.107,4.49 17.272,9.973 v 0 c 47.811,83.729 47.818,55.94 0.002,139.68 v 0 c -3.167,5.485 -10.939,9.974 -17.274,9.974 v 0 z"
       transform="matrix(1.3333333,0,0,-1.3333333,1542.5333,782.31333)"
       style="fill:url(#linearGradient97);stroke:none" />
    <path
       id="path98"
       d="m 0,0 c -10.091,-1.462 -22.361,31.092 -27.279,36.748 -6.308,8.01 15.747,34.911 18.187,41.999 3.782,9.467 38.11,3.817 45.469,5.249 3.331,-0.002 7.421,-2.362 9.088,-5.249 C 70.487,35.365 70.482,48.621 45.464,5.246 41.684,-4.218 7.357,1.43 0,0"
       style="fill:#ffffff;fill-opacity:1;fill-rule:nonzero;stroke:none"
       transform="matrix(1.3333333,0,0,-1.3333333,2215.8732,577.52333)" />
    <path
       id="path100"
       d="m 493.646,230.072 c -2.44,-7.087 -24.496,-33.99 -18.188,-41.997 v 0 c 4.919,-5.657 17.188,-38.212 27.279,-36.75 v 0 c 2.347,0.456 7.438,0.192 13.408,-0.072 v 0 c 12.742,-0.564 29.484,-1.129 32.056,5.32 v 0 c 25.018,43.376 25.023,30.117 0.002,73.499 v 0 c -1.666,2.887 -5.757,5.247 -9.09,5.249 v 0 c -2.348,-0.457 -7.441,-0.193 -13.411,0.07 v 0 c -3.614,0.16 -7.546,0.32 -11.388,0.32 v 0 c -9.707,0 -18.824,-1.021 -20.668,-5.639"
       transform="matrix(1.3333333,0,0,-1.3333333,1542.5333,782.31333)"
       style="fill:url(#linearGradient100);stroke:none" />
    <path
       id="path101"
       d="m 0,0 c -7.008,-1.017 -15.532,21.595 -18.949,25.525 -4.491,5.647 11.02,24.203 12.633,29.175 2.627,6.572 26.471,2.65 31.583,3.644 2.315,-10e-4 5.155,-1.641 6.313,-3.645 C 48.903,24.838 48.902,33.501 31.579,3.644 28.956,-2.93 5.111,0.993 0,0"
       style="fill:#ffffff;fill-opacity:1;fill-rule:nonzero;stroke:none"
       transform="matrix(1.3333333,0,0,-1.3333333,2011.3625,692.34333)" />
    <path
       id="path103"
       d="m 344.713,121.584 c -1.612,-4.97 -17.125,-23.529 -12.634,-29.173 v 0 c 3.418,-3.93 11.942,-26.544 18.949,-25.527 v 0 c 1.63,0.317 5.167,0.134 9.313,-0.05 v 0 c 8.852,-0.392 20.481,-0.784 22.266,3.695 v 0 c 17.323,29.858 17.324,21.193 0.002,51.054 v 0 c -1.157,2.004 -3.999,3.644 -6.314,3.645 v 0 c -1.63,-0.318 -5.167,-0.134 -9.314,0.049 v 0 c -2.509,0.111 -5.241,0.222 -7.909,0.222 v 0 c -6.744,0 -13.079,-0.708 -14.359,-3.915"
       transform="matrix(1.3333333,0,0,-1.3333333,1542.5333,782.31333)"
       style="fill:url(#linearGradient103);stroke:none" />
    <path
       id="path104"
       d="m 0,0 c -7.008,-1.017 -15.532,21.595 -18.949,25.525 -4.491,5.647 11.02,24.203 12.633,29.175 2.627,6.572 26.471,2.65 31.583,3.644 2.314,-10e-4 5.155,-1.641 6.313,-3.645 C 48.903,24.837 48.902,33.501 31.579,3.644 28.956,-2.93 5.111,0.993 0,0"
       style="fill:#ffffff;fill-opacity:1;fill-rule:nonzero;stroke:none"
       transform="matrix(1.3333333,0,0,-1.3333333,2040.5147,602.89493)" />
    <path
       id="path106"
       d="m 366.577,188.67 c -1.613,-4.97 -17.124,-23.529 -12.633,-29.173 v 0 c 3.417,-3.929 11.94,-26.544 18.948,-25.527 v 0 c 1.63,0.317 5.167,0.134 9.312,-0.05 v 0 c 8.852,-0.392 20.482,-0.783 22.268,3.696 v 0 c 17.322,29.857 17.324,21.192 0.001,51.053 v 0 c -1.157,2.004 -3.999,3.644 -6.313,3.645 v 0 c -1.631,-0.318 -5.168,-0.134 -9.314,0.049 v 0 c -2.511,0.111 -5.244,0.222 -7.913,0.222 v 0 c -6.743,0 -13.075,-0.708 -14.356,-3.915"
       transform="matrix(1.3333333,0,0,-1.3333333,1542.5333,782.31333)"
       style="fill:url(#linearGradient106);stroke:none" />
    <path
       id="path107"
       d="m 0,0 c -12.058,-1.747 -26.719,37.153 -32.597,43.911 -7.538,9.573 18.817,41.716 21.733,50.187 4.518,11.314 45.539,4.562 54.332,6.273 3.982,-0.002 8.868,-2.823 10.861,-6.273 C 84.228,42.26 84.223,58.1 54.327,6.27 49.811,-5.042 8.791,1.709 0,0"
       style="fill:#ffffff;fill-opacity:1;fill-rule:nonzero;stroke:none"
       transform="matrix(1.3333333,0,0,-1.3333333,1755.3865,759.61907)" />
    <path
       id="path109"
       d="m 148.776,109.07 c -2.914,-8.467 -29.27,-40.617 -21.734,-50.185 v 0 c 5.879,-6.759 20.542,-45.661 32.598,-43.915 v 0 c 2.804,0.545 8.888,0.229 16.02,-0.087 v 0 c 15.228,-0.674 35.234,-1.348 38.307,6.359 v 0 c 29.895,51.832 29.901,35.988 0.003,87.827 v 0 c -1.991,3.449 -6.88,6.271 -10.862,6.272 v 0 c -2.805,-0.546 -8.89,-0.23 -16.023,0.085 v 0 c -4.318,0.191 -9.017,0.382 -13.609,0.382 v 0 c -11.6,-0.001 -22.495,-1.22 -24.7,-6.738"
       transform="matrix(1.3333333,0,0,-1.3333333,1542.5333,782.31333)"
       style="fill:url(#linearGradient109);stroke:none" />
    <path
       id="path110"
       d="m 0,0 34.674,20.018 c 6.435,3.716 14.714,1.498 18.429,-4.936 C 56.817,8.645 54.6,0.367 48.164,-3.347 L 0,-31.156 -0.421,-84.671 c 0,-7.429 -6.061,-13.49 -13.491,-13.49 -7.43,0 -13.491,6.061 -13.491,13.49 l 0.422,124.186 c 0,4.954 2.456,9.206 6.746,11.684 l 101.188,58.42 c 3.563,2.057 7.69,2.294 11.296,1.004 6.907,-2.105 10.975,-9.365 9.091,-16.392 L 83.926,29.24 118.009,-4.843 c 3.065,-3.065 4.402,-7.003 3.836,-11.3 -0.566,-4.297 -2.876,-7.756 -6.63,-9.923 L 7.446,-88.286 v 31.155 L 86.499,-11.489 59.34,15.668 c -3.503,3.503 -4.774,8.246 -3.492,13.031 L 67.03,70.425 0,31.727 Z"
       style="fill:#27a5de;fill-opacity:1;fill-rule:evenodd;stroke:none"
       transform="matrix(1.3333333,0,0,-1.3333333,1953.0184,262.84547)" />
    <path
       id="path111"
       d="m 0,0 c 0,-71.603 -58.046,-129.649 -129.649,-129.649 -71.604,0 -129.65,58.046 -129.65,129.649 0,71.603 58.046,129.649 129.65,129.649 C -58.046,129.649 0,71.603 0,0 Z"
       style="fill:none;stroke:#27a5de;stroke-width:13.337;stroke-linecap:butt;stroke-linejoin:miter;stroke-miterlimit:10;stroke-dasharray:none;stroke-opacity:1"
       transform="matrix(1.3333333,0,0,-1.3333333,2173.262,253.3508)" />
    <path
       id="path112"
       d="m 8.0895505,-8.8828178 -7.28746025,-0.00296 c -0.0944672,-0.00153 -0.16842655,0.077232 -0.16995369,0.1716992 l 0.002924,0.1788551 c -0.001527,0.094467 0.0753557,0.1945632 0.16982296,0.1960903 l 7.28746038,0.00296 c 0.100445,-0.00855 0.1964394,-0.1014924 0.1979665,-0.1959596 l -0.00292,-0.1788551 c 0.00153,-0.094467 -0.097391,-0.1803822 -0.1978359,-0.1718299 z m -2.4807993,4.1829582 -4.80740077,-0.00358 c -0.0944672,-0.00153 -0.16244871,0.067152 -0.16995368,0.1716992 l -0.001918,4.34514389 c -0.001527,0.09446724 0.0854351,0.20054104 0.17990237,0.20206818 l 0.16279782,0.001178 C 1.0827036,0.01407956 1.1686185,-0.08483837 1.1701457,-0.17930561 l -0.00231,-3.99341169 4.4396112,0.00345 c 0.1105245,-0.00257 0.1844838,-0.081333 0.1819093,-0.191858 l 0.00118,-0.1627978 c 0.0075,-0.1045467 -0.071254,-0.178506 -0.1817786,-0.1759315 z m 10.9687158,0.2685392 c 0.759621,-0.4078457 1.290121,-1.2104466 1.285582,-2.0987441 -6.55e-4,-1.3083604 -1.071168,-2.3519938 -2.37355,-2.3614181 l -5.112838,0.00602 c -0.09447,-0.00153 -0.168426,0.077232 -0.169953,0.1716992 l 0.0029,0.1788551 c -0.0015,0.094467 0.07536,0.1945632 0.169823,0.1960903 l 5.112838,-0.00602 c 1.002923,0.00894 1.822978,0.8086649 1.824113,1.8175663 -0.003,0.9928442 -0.824722,1.8270797 -1.827646,1.8181353 l -5.112838,0.00602 c -0.09447,-0.00153 -0.162448,0.067153 -0.169953,0.1716992 l -0.0019,4.34514396 c -0.0015,0.09446724 0.08544,0.20054103 0.179902,0.20206817 L 15.49679,0.00977487 c 1.302382,0.00942429 2.362073,-1.06519017 2.361418,-2.37355047 -4.37e-4,-0.8722403 -0.515055,-1.6815603 -1.280741,-2.0675448 z m -1.079368,3.91050791 -4.745048,0.006155 -0.01065,-3.65773661 4.745048,-0.00615 c 1.002924,0.00894 1.82708,0.8247222 1.824113,1.8175663 0.0011,1.0089014 -0.810541,1.84911478 -1.813464,1.84017032 z m 8.423397,-8.37355391 c -2.453923,0.00249 -4.451522,1.9923228 -4.455012,4.4563251 0.0025,2.4539229 2.002403,4.45750008 4.456325,4.4550118 2.453923,-0.0024883 4.441443,-1.9983005 4.438955,-4.4522234 0.0035,-2.4640024 -1.986345,-4.4616017 -4.440268,-4.4591135 z m 0.0026,8.38074954 c -2.164543,-0.00301 -3.908021,-1.77275334 -3.916967,-3.91713784 0.003,-2.1645434 1.746617,-3.9098974 3.91116,-3.9068876 2.154464,-0.00297 3.909898,1.7466167 3.906888,3.91116 0.0089,2.1443845 -1.746617,3.90989733 -3.901081,3.91286544 z m 16.704926,-4.19433144 -2.932237,0.00493 c -1.008901,0.00113 -1.811022,-0.8288237 -1.808056,-1.8216679 -0.0011,-1.0089014 0.802687,-1.8128987 1.811589,-1.8140336 l 2.932237,-0.00493 c 1.002923,0.00894 1.822978,0.8086649 1.824113,1.8175663 -0.0015,0.094467 0.09141,0.1904616 0.1758,0.1860109 l 0.172878,0.00716 c 0.100445,-0.00855 0.196439,-0.1014924 0.197966,-0.1959597 -6.55e-4,-1.3083603 -1.06519,-2.3620732 -2.367572,-2.3714974 l -2.932237,0.00493 c -1.298281,0.00663 -2.356096,1.0551108 -2.355441,2.3634711 -0.0034,1.2923031 1.049133,2.3661748 2.347414,2.3595418 l 2.932237,-0.00493 c 1.002924,0.00894 1.82708,0.8247221 1.824113,1.8175662 0.0011,1.0089014 -0.810541,1.84911481 -1.813464,1.84017035 l -2.932237,0.004932 c -1.008902,0.001135 -1.821102,-0.83480155 -1.822237,-1.84370295 0.0015,-0.094467 -0.09141,-0.1904616 -0.201938,-0.1878872 l -0.162797,-0.00118 c -0.09447,-0.00153 -0.174405,0.087311 -0.175932,0.1817786 6.55e-4,1.3083604 1.063314,2.38820986 2.361595,2.38157691 l 2.932237,-0.004932 c 1.302382,0.0094243 2.362073,-1.06519011 2.361418,-2.37355051 -0.0025,-1.2822237 -1.067066,-2.3359365 -2.369449,-2.3453608 z m 8.428723,-4.1842045 c -2.453923,0.00249 -4.451522,1.9923227 -4.455012,4.456325 0.0025,2.4539229 2.002402,4.45750011 4.456325,4.45501183 2.453923,-0.0024883 4.441443,-1.99830053 4.438955,-4.45222343 0.0035,-2.4640023 -1.986345,-4.4616017 -4.440268,-4.4591134 z m 0.0026,8.38074947 c -2.164543,-0.00301 -3.908021,-1.77275337 -3.916967,-3.91713787 0.003,-2.1645433 1.746617,-3.9098973 3.91116,-3.9068876 2.154464,-0.00297 3.909897,1.7466167 3.906887,3.91116 0.0089,2.1443846 -1.746616,3.90989736 -3.90108,3.91286547 z m 13.833276,-0.001337 -6.91967,-0.002833 -0.0057,-8.19181497 c 0.0015,-0.094467 -0.09141,-0.1904616 -0.201937,-0.1878872 l -0.162798,-0.00118 c -0.09447,-0.00153 -0.174404,0.087311 -0.175932,0.1817786 l -0.0027,8.52749002 c -0.0015,0.09446724 0.08544,0.20054104 0.179902,0.20206818 l 7.28746,0.0029637 c 0.100446,-0.00855228 0.186361,-0.10747021 0.187888,-0.20193745 l 0.0012,-0.16279781 c 0.0075,-0.10454666 -0.08731,-0.17440437 -0.187757,-0.1658521 z m 8.430401,-8.37961897 -0.172877,-0.00716 c -0.04219,0.00223 -0.08626,0.030587 -0.110176,0.070905 -0.06013,0.032464 -0.06798,0.06868 -0.07173,0.120953 l 8.75e-4,4.8917886 c 0.0012,1.812811 -1.482415,3.30360515 -3.279168,3.30072616 -1.812811,0.001223 -3.287548,-1.48651576 -3.288771,-3.29932676 L 64.4013,-8.7062619 c 0.0015,-0.094467 -0.09141,-0.1904616 -0.201937,-0.1878872 l -0.162798,-0.00118 c -0.09447,-0.00153 -0.174405,0.087311 -0.175932,0.1817786 l 8.75e-4,4.8917886 c 7.43e-4,2.11227 1.731916,3.8338419 3.828129,3.83720072 2.096213,0.0033588 3.827864,-1.72183632 3.827121,-3.83410632 l -8.75e-4,-4.8917886 c 0.0015,-0.094467 -0.09739,-0.1803822 -0.191858,-0.1819093 z m 6.025005,4.2681274 -0.162798,-0.00118 c -0.104547,-0.00751 -0.194563,0.075356 -0.197967,0.1959596 l -3.9e-4,4.25067669 c -0.0015,0.09446724 0.09141,0.19046162 0.195959,0.19796659 l 0.162798,0.001178 c 0.110525,-0.0025744 0.18636,-0.10747021 0.187887,-0.20193745 l 3.91e-4,-4.25067673 c 0.0034,-0.1206039 -0.07536,-0.1945632 -0.18588,-0.1919887 z m 3.55358,-4.2688301 -7.28746,-0.00296 c -0.09447,-0.00153 -0.174404,0.087311 -0.175931,0.1817786 l 0.0029,0.178855 c -0.0015,0.094467 0.07536,0.1945632 0.169823,0.1960904 l 7.28746,0.00296 c 0.100446,-0.00855 0.19644,-0.1014924 0.197967,-0.1959596 l -0.0029,-0.1788551 c 0.0015,-0.094467 -0.09141,-0.1904616 -0.191859,-0.1819093 z m 2.453923,-0.00249 -0.162797,-0.00118 c -0.09447,-0.00153 -0.174405,0.087311 -0.175932,0.1817786 l -0.0027,8.52749013 c -0.0015,0.09446724 0.08544,0.20054104 0.179903,0.20206818 l 0.162798,0.001178 c 0.110524,-0.0025744 0.196439,-0.10149237 0.197966,-0.19595961 l 0.0027,-8.5274901 c 0.0015,-0.094467 -0.09141,-0.1904616 -0.201938,-0.1878871 z m 6.590061,0.0015 c -2.453923,0.00249 -4.451522,1.9923228 -4.455012,4.4563251 0.0025,2.4539229 2.002402,4.4575001 4.456325,4.45501182 2.453923,-0.0024883 4.441443,-1.99830052 4.438955,-4.45222342 0.0035,-2.4640024 -1.986345,-4.4616017 -4.440268,-4.4591135 z m 0.0026,8.38074956 c -2.164543,-0.00301 -3.908021,-1.77275336 -3.916967,-3.91713786 0.003,-2.1645434 1.746617,-3.9098974 3.91116,-3.9068876 2.154464,-0.00297 3.909897,1.7466167 3.906888,3.91116 0.0089,2.1443845 -1.746617,3.90989735 -3.901081,3.91286546 z M 100.39648,-4.563112 96.855637,-8.8157942 c -0.03844,-0.050048 -0.08884,-0.079937 -0.131032,-0.077712 l -0.231128,-8.289e-4 c -0.01008,-0.00598 -0.01606,0.0041 -0.02204,0.014181 -0.01008,-0.00598 -0.01008,-0.00598 -0.01008,-0.00598 -0.01606,0.0041 -0.01606,0.0041 -0.02203,0.014181 0,0 0,0 -0.01606,0.0041 0,0 -0.01008,-0.00598 -0.03212,0.0082 0.0041,0.016057 0.0041,0.016057 -0.0079,0.036216 -0.03211,0.0082 -0.03211,0.0082 -0.03809,0.018283 -0.006,0.010079 -0.02204,0.014181 -0.01793,0.030238 -0.006,0.010079 -0.006,0.010079 -0.006,0.010079 0,0 0,0 -0.006,0.010079 0,0 0,0 0.0041,0.016057 0,0 -0.006,0.010079 -0.0019,0.026137 l -0.0027,8.52749003 c -0.0015,0.09446724 0.08544,0.20054104 0.179903,0.20206818 l 0.162798,0.001178 c 0.110524,-0.0025745 0.196439,-0.10149238 0.197966,-0.19595962 l 0.0043,-7.81804759 3.035476,3.6804684 0.09106,0.122131 3.43372,4.13465273 c 0.0284,0.04407015 0.1049,0.07583555 0.14709,0.0736102 l 0.21507,0.0049305 c 0.0683,-3.491e-4 0.13033,-0.05894936 0.1621,-0.13548311 0.04,-0.0444193 0.0254,-0.13478491 -0.0291,-0.18073131 z m 3.38446,-4.3282593 -0.17288,-0.00716 c -0.0844,0.00445 -0.18038,0.097391 -0.18191,0.191858 l -0.002,4.2768134 c -0.002,0.094467 0.0974,0.1803822 0.18178,0.1759315 l 0.17288,0.00716 c 0.10044,-0.00855 0.19046,-0.091413 0.19199,-0.1858802 l 0.002,-4.2768133 c 0.002,-0.094467 -0.0914,-0.1904616 -0.19185,-0.1819094 z m 12.45183,4.1830385 -2.93224,0.00493 c -1.0089,0.00113 -1.81102,-0.8288238 -1.80805,-1.8216679 -0.001,-1.0089014 0.80268,-1.8128987 1.81158,-1.8140337 l 2.93224,-0.00493 c 1.00292,0.00894 1.82298,0.8086649 1.82411,1.8175663 -0.002,0.094467 0.0914,0.1904616 0.1758,0.186011 l 0.17288,0.00716 c 0.10045,-0.00855 0.19644,-0.1014924 0.19797,-0.1959596 -6.6e-4,-1.3083604 -1.06519,-2.3620732 -2.36757,-2.3714975 l -2.93224,0.00493 c -1.29828,0.00663 -2.3561,1.0551107 -2.35544,2.3634711 -0.003,1.2923031 1.04913,2.3661748 2.34741,2.3595418 l 2.93224,-0.00493 c 1.00292,0.00894 1.82708,0.8247222 1.82411,1.8175663 10e-4,1.0089014 -0.81054,1.84911478 -1.81346,1.84017032 l -2.93224,0.004932 c -1.0089,0.001135 -1.8211,-0.83480152 -1.82224,-1.84370292 0.002,-0.094467 -0.0914,-0.1904617 -0.20193,-0.1878872 l -0.1628,-0.00118 c -0.0945,-0.00153 -0.17441,0.087311 -0.17593,0.1817786 6.5e-4,1.3083603 1.06331,2.38820983 2.36159,2.38157688 l 2.93224,-0.004932 c 1.30238,0.0094243 2.36207,-1.06519018 2.36142,-2.37355048 -0.003,-1.2822237 -1.06707,-2.3359365 -2.36945,-2.3453608 z m 11.89176,4.40948731 -1.96357,-2.36351271 c 1.21145,-0.4804963 2.02138,-1.6623625 2.0226,-2.9968595 0.001,-1.7706172 -1.46553,-3.226241 -3.2522,-3.2231422 l -4.0035,-0.00366 c 0,0 0.006,-0.010079 0.006,-0.010079 l -0.2371,0.00925 c -0.0101,-0.00598 -0.0101,-0.00598 -0.0161,0.0041 -0.0101,-0.00598 -0.0101,-0.00598 -0.0101,-0.00598 -0.0161,0.0041 -0.0161,0.0041 -0.022,0.014181 0,0 0,0 -0.0161,0.0041 0,0 -0.0101,-0.00598 -0.0321,0.0082 0.004,0.016057 0.004,0.016057 -0.008,0.036216 -0.0321,0.0082 -0.0321,0.0082 -0.0381,0.018283 -0.006,0.010079 -0.022,0.014181 -0.0179,0.030238 -0.006,0.010079 -0.006,0.010079 -0.006,0.010079 0,0 0,0 -0.006,0.010079 0,0 0,0 0.004,0.016057 0,0 -0.006,0.010079 -0.002,0.026137 l 0.003,0.1788551 c -0.002,0.094467 0.0754,0.1945632 0.16982,0.1960903 l 0.0683,-3.491e-4 4.44891,5.3634682 c -0.0844,0.00445 -0.18671,0.03914 -0.28118,0.037612 l -4.23462,-0.00449 c -0.0945,-0.00153 -0.17253,0.061175 -0.17593,0.1817786 l -9.2e-4,2.57452677 c -0.002,0.09446724 0.0854,0.20054104 0.17991,0.20206818 l 0.16279,0.001178 c 0.11053,-0.0025744 0.19644,-0.10149238 0.19797,-0.19595962 l 0.003,-2.23287393 3.86683,0.00436 c 0.23711,-0.00925 0.45406,-0.030457 0.69304,-0.065844 l 2.00201,2.41356067 c 0.0284,0.04407016 0.10489,0.07583555 0.14709,0.0736102 l 0.21507,0.0049305 c 0.0683,-3.491e-4 0.13033,-0.05894936 0.1621,-0.13548311 0.04,-0.0444193 0.0254,-0.13478491 -0.0291,-0.18073131 z m -6.67336,-8.04520221 3.48298,0.00833 c 1.48721,-0.00358 2.69919,1.192075 2.70277,2.6792904 -0.004,1.1556419 -0.74457,2.1743613 -1.82791,2.5537143 z m 16.11872,7.8326465 -6.91967,-0.002833 -0.006,-8.191815 c 0.002,-0.094467 -0.0914,-0.1904616 -0.20194,-0.1878871 l -0.1628,-0.00118 c -0.0945,-0.00153 -0.1744,0.087311 -0.17593,0.1817786 l -0.003,8.52749005 c -0.002,0.09446724 0.0854,0.20054104 0.1799,0.20206818 l 7.28746,0.0029637 c 0.10044,-0.0085523 0.18636,-0.1074702 0.18789,-0.20193744 l 0.001,-0.16279782 c 0.008,-0.10454666 -0.0873,-0.17440437 -0.18775,-0.16585209 z m 0,0"
       style="fill:#27a5de;fill-opacity:1;fill-rule:nonzero;stroke:none"
       aria-label="FB&#10;O S&#10;ol&#10;ution Srl"
       transform="matrix(1.1468137,-0.68014419,0.68014419,1.1468137,1975.0751,401.41947)" />
    <path
       id="path113"
       d="m 0,0 -6.254,-3.709 c -0.089,-0.053 -0.118,-0.168 -0.065,-0.257 l 0.082,-0.138 c 0.052,-0.09 0.168,-0.119 0.258,-0.066 l 6.253,3.709 c 0.089,0.053 0.119,0.168 0.066,0.258 L 0.258,-0.065 C 0.205,0.023 0.089,0.053 0,0 Z m 0.001,-4.859 -4.122,-2.445 c -0.09,-0.053 -0.119,-0.168 -0.066,-0.257 l 2.213,-3.733 c 0.053,-0.089 0.168,-0.119 0.258,-0.066 l 0.138,0.082 c 0.089,0.053 0.118,0.168 0.065,0.257 l -2.037,3.433 3.823,2.268 c 0.089,0.052 0.119,0.168 0.066,0.258 L 0.258,-4.925 C 0.205,-4.836 0.09,-4.807 0.001,-4.859 Z"
       style="fill:none;stroke:#010101;stroke-width:0.529;stroke-linecap:butt;stroke-linejoin:miter;stroke-miterlimit:10;stroke-dasharray:none;stroke-opacity:1"
       transform="matrix(1.3333333,0,0,-1.3333333,1978.3093,385.71693)" />
    <path
       id="path114"
       d="m 0,0 c 0.452,0.734 0.475,1.681 0.022,2.443 -0.664,1.119 -2.113,1.488 -3.23,0.825 L -7.597,0.666 C -7.686,0.613 -7.715,0.498 -7.662,0.409 L -7.58,0.271 c 0.054,-0.09 0.169,-0.119 0.258,-0.066 l 4.387,2.602 C -2.07,3.32 -0.951,3.034 -0.438,2.17 0.074,1.306 -0.212,0.186 -1.076,-0.327 l -4.388,-2.602 c -0.09,-0.053 -0.119,-0.168 -0.066,-0.257 l 2.215,-3.733 c 0.052,-0.089 0.168,-0.119 0.256,-0.065 l 4.388,2.602 C 2.447,-3.719 2.817,-2.27 2.154,-1.151 1.702,-0.39 0.86,0.046 0,0 Z m 1.056,-3.921 -4.088,-2.425 -1.86,3.134 4.088,2.424 C 0.061,-0.275 1.181,-0.56 1.693,-1.424 2.206,-2.29 1.92,-3.409 1.056,-3.921 Z"
       style="fill:none;stroke:#010101;stroke-width:0.529;stroke-linecap:butt;stroke-linejoin:miter;stroke-miterlimit:10;stroke-dasharray:none;stroke-opacity:1"
       transform="matrix(1.3333333,0,0,-1.3333333,1991.0828,385.03667)" />
    <path
       id="path115"
       d="m 0,0 c -2.109,-1.251 -2.808,-3.985 -1.557,-6.094 1.251,-2.11 3.985,-2.808 6.094,-1.556 2.109,1.25 2.807,3.983 1.557,6.093 C 4.843,0.552 2.109,1.25 0,0 Z m 4.264,-7.189 c -1.856,-1.101 -4.26,-0.486 -5.36,1.368 -1.1,1.856 -0.486,4.259 1.369,5.36 1.856,1.1 4.259,0.486 5.36,-1.369 1.099,-1.855 0.486,-4.259 -1.369,-5.359 z"
       style="fill:none;stroke:#010101;stroke-width:0.529;stroke-linecap:butt;stroke-linejoin:miter;stroke-miterlimit:10;stroke-dasharray:none;stroke-opacity:1"
       transform="matrix(1.3333333,0,0,-1.3333333,1996.4591,374.95333)" />
    <path
       id="path116"
       d="m 0,0 -2.521,-1.496 c -0.865,-0.512 -1.985,-0.226 -2.498,0.639 -0.512,0.864 -0.225,1.982 0.639,2.495 l 2.522,1.496 C -0.994,3.646 0.124,3.361 0.638,2.497 0.69,2.408 0.806,2.378 0.895,2.431 L 1.032,2.513 C 1.122,2.566 1.151,2.681 1.099,2.77 0.435,3.888 -1.015,4.258 -2.132,3.595 L -4.654,2.099 c -1.118,-0.663 -1.488,-2.112 -0.825,-3.23 0.664,-1.118 2.113,-1.489 3.23,-0.826 l 2.521,1.496 C 1.138,0.051 2.257,-0.234 2.77,-1.098 3.282,-1.962 2.996,-3.083 2.132,-3.595 L -0.39,-5.091 c -0.864,-0.512 -1.984,-0.225 -2.496,0.639 -0.052,0.089 -0.169,0.119 -0.258,0.066 l -0.137,-0.082 c -0.089,-0.053 -0.118,-0.169 -0.066,-0.258 0.663,-1.118 2.113,-1.489 3.231,-0.826 l 2.521,1.496 C 3.523,-3.393 3.894,-1.943 3.23,-0.825 2.567,0.292 1.118,0.663 0,0 Z"
       style="fill:none;stroke:#010101;stroke-width:0.529;stroke-linecap:butt;stroke-linejoin:miter;stroke-miterlimit:10;stroke-dasharray:none;stroke-opacity:1"
       transform="matrix(1.3333333,0,0,-1.3333333,2018.476,368.37453)" />
    <path
       id="path117"
       d="m 0,0 c -2.109,-1.251 -2.808,-3.984 -1.557,-6.094 1.25,-2.109 3.985,-2.807 6.094,-1.556 2.109,1.251 2.807,3.984 1.557,6.093 C 4.843,0.553 2.109,1.251 0,0 Z m 4.264,-7.189 c -1.856,-1.101 -4.26,-0.486 -5.36,1.368 -1.1,1.856 -0.486,4.259 1.369,5.36 1.856,1.1 4.259,0.486 5.36,-1.369 1.099,-1.855 0.486,-4.259 -1.369,-5.359 z"
       style="fill:none;stroke:#010101;stroke-width:0.529;stroke-linecap:butt;stroke-linejoin:miter;stroke-miterlimit:10;stroke-dasharray:none;stroke-opacity:1"
       transform="matrix(1.3333333,0,0,-1.3333333,2025.2872,357.85627)" />
    <path
       id="path118"
       d="m 0,0 -5.955,-3.532 -4.168,7.029 c -0.053,0.088 -0.168,0.118 -0.258,0.065 L -10.518,3.48 c -0.089,-0.053 -0.119,-0.168 -0.066,-0.257 l 4.346,-7.328 c 0.052,-0.089 0.169,-0.118 0.258,-0.065 l 6.253,3.709 c 0.09,0.053 0.12,0.168 0.067,0.257 L 0.258,-0.066 C 0.204,0.023 0.09,0.053 0,0 Z"
       style="fill:none;stroke:#010101;stroke-width:0.529;stroke-linecap:butt;stroke-linejoin:miter;stroke-miterlimit:10;stroke-dasharray:none;stroke-opacity:1"
       transform="matrix(1.3333333,0,0,-1.3333333,2046.8367,358.03333)" />
    <path
       id="path119"
       d="m 0,0 -0.138,-0.082 c -0.042,-0.025 -0.073,-0.066 -0.086,-0.115 -0.012,-0.048 -0.005,-0.099 0.021,-0.142 l 2.49,-4.2 c 0.926,-1.56 0.41,-3.581 -1.149,-4.505 -1.56,-0.925 -3.58,-0.409 -4.506,1.15 l -2.49,4.201 c -0.053,0.089 -0.169,0.118 -0.258,0.065 l -0.138,-0.081 c -0.089,-0.053 -0.118,-0.168 -0.065,-0.257 l 2.49,-4.201 c 1.076,-1.813 3.427,-2.414 5.24,-1.338 1.814,1.075 2.413,3.426 1.337,5.239 l -2.49,4.201 C 0.205,0.023 0.09,0.053 0,0 Z"
       style="fill:none;stroke:#010101;stroke-width:0.529;stroke-linecap:butt;stroke-linejoin:miter;stroke-miterlimit:10;stroke-dasharray:none;stroke-opacity:1"
       transform="matrix(1.3333333,0,0,-1.3333333,2050.8237,342.71053)" />
    <path
       id="path120"
       d="M 0,0 -0.139,-0.082 C -0.228,-0.134 -0.258,-0.25 -0.204,-0.338 l 2.173,-3.664 c 0.052,-0.089 0.168,-0.119 0.258,-0.066 l 0.136,0.082 c 0.09,0.053 0.119,0.168 0.067,0.257 L 0.257,-0.065 C 0.203,0.023 0.089,0.053 0,0 Z M 0.885,5.478 -5.369,1.769 C -5.459,1.716 -5.488,1.601 -5.436,1.512 L -5.354,1.374 C -5.301,1.285 -5.185,1.255 -5.096,1.308 L 1.158,5.017 C 1.247,5.07 1.277,5.185 1.224,5.275 L 1.142,5.413 C 1.089,5.501 0.974,5.531 0.885,5.478 Z"
       style="fill:none;stroke:#010101;stroke-width:0.529;stroke-linecap:butt;stroke-linejoin:miter;stroke-miterlimit:10;stroke-dasharray:none;stroke-opacity:1"
       transform="matrix(1.3333333,0,0,-1.3333333,2060.6284,343.5008)" />
    <path
       id="path121"
       d="M 0,0 -0.138,-0.082 C -0.227,-0.134 -0.257,-0.25 -0.204,-0.338 l 4.347,-7.329 c 0.052,-0.088 0.168,-0.118 0.256,-0.065 l 0.138,0.082 c 0.09,0.053 0.119,0.168 0.067,0.257 L 0.257,-0.065 C 0.204,0.024 0.089,0.053 0,0 Z"
       style="fill:none;stroke:#010101;stroke-width:0.529;stroke-linecap:butt;stroke-linejoin:miter;stroke-miterlimit:10;stroke-dasharray:none;stroke-opacity:1"
       transform="matrix(1.3333333,0,0,-1.3333333,2064.6361,334.51973)" />
    <path
       id="path122"
       d="m 0,0 c -2.109,-1.251 -2.808,-3.985 -1.557,-6.094 1.251,-2.11 3.985,-2.807 6.094,-1.556 2.109,1.251 2.807,3.984 1.557,6.093 C 4.843,0.553 2.109,1.251 0,0 Z m 4.264,-7.189 c -1.856,-1.101 -4.26,-0.486 -5.36,1.368 -1.1,1.856 -0.486,4.259 1.369,5.36 1.856,1.1 4.259,0.486 5.36,-1.369 1.099,-1.855 0.486,-4.259 -1.369,-5.359 z"
       style="fill:none;stroke:#010101;stroke-width:0.529;stroke-linecap:butt;stroke-linejoin:miter;stroke-miterlimit:10;stroke-dasharray:none;stroke-opacity:1"
       transform="matrix(1.3333333,0,0,-1.3333333,2072.1779,330.0464)" />
    <path
       id="path123"
       d="M 0,0 -5.211,1.861 C -5.263,1.88 -5.322,1.875 -5.37,1.846 L -5.549,1.74 C -5.559,1.734 -5.568,1.728 -5.576,1.721 -5.578,1.718 -5.58,1.716 -5.582,1.713 -5.589,1.707 -5.595,1.701 -5.6,1.695 -5.602,1.693 -5.604,1.69 -5.605,1.688 -5.611,1.679 -5.617,1.671 -5.621,1.661 -5.623,1.659 -5.623,1.656 -5.625,1.654 -5.628,1.646 -5.631,1.639 -5.633,1.63 -5.634,1.627 -5.635,1.624 -5.635,1.62 -5.637,1.611 -5.639,1.602 -5.64,1.594 c 0,-0.002 -0.001,-0.003 -0.001,-0.006 0,-0.008 0,-0.019 0.002,-0.027 -10e-4,-10e-4 0,-0.003 0,-0.004 0,-0.004 0.001,-0.007 0.001,-0.011 0.002,-0.007 0.004,-0.015 0.006,-0.023 10e-4,-0.003 0.002,-0.005 0.003,-0.009 0.004,-0.011 0.009,-0.021 0.014,-0.03 0.001,-10e-4 0,-10e-4 0,-10e-4 l 4.346,-7.328 c 0.053,-0.089 0.168,-0.118 0.257,-0.065 l 0.139,0.081 c 0.089,0.054 0.118,0.168 0.065,0.257 l -3.981,6.714 4.482,-1.602 0.155,-0.055 5.056,-1.807 c 0.053,-0.018 0.112,-0.014 0.16,0.015 l 0.179,0.106 c 0.063,0.037 0.098,0.107 0.09,0.18 -0.006,0.072 -0.055,0.134 -0.123,0.158 z M 0.705,5.449 0.567,5.368 C 0.479,5.314 0.449,5.2 0.502,5.111 L 2.675,1.447 C 2.728,1.358 2.843,1.328 2.932,1.381 L 3.069,1.463 C 3.158,1.516 3.188,1.631 3.136,1.72 L 0.963,5.384 C 0.91,5.473 0.795,5.502 0.705,5.449 Z"
       style="fill:none;stroke:#010101;stroke-width:0.529;stroke-linecap:butt;stroke-linejoin:miter;stroke-miterlimit:10;stroke-dasharray:none;stroke-opacity:1"
       transform="matrix(1.3333333,0,0,-1.3333333,2087.1024,327.9032)" />
    <path
       id="path124"
       d="m 0,0 -2.522,-1.495 c -0.864,-0.513 -1.984,-0.227 -2.497,0.638 -0.512,0.864 -0.226,1.983 0.639,2.496 l 2.522,1.495 C -0.995,3.646 0.124,3.361 0.637,2.497 0.689,2.408 0.805,2.379 0.895,2.432 L 1.032,2.513 C 1.121,2.566 1.15,2.682 1.098,2.771 0.435,3.889 -1.015,4.258 -2.133,3.595 L -4.654,2.1 c -1.118,-0.664 -1.489,-2.112 -0.825,-3.23 0.663,-1.119 2.112,-1.489 3.23,-0.826 l 2.521,1.495 C 1.137,0.052 2.257,-0.233 2.77,-1.098 3.281,-1.962 2.995,-3.082 2.132,-3.595 L -0.39,-5.09 c -0.865,-0.513 -1.984,-0.226 -2.497,0.638 -0.052,0.089 -0.168,0.119 -0.258,0.066 l -0.137,-0.081 c -0.089,-0.054 -0.118,-0.17 -0.066,-0.259 0.663,-1.118 2.113,-1.488 3.232,-0.825 l 2.521,1.495 c 1.118,0.663 1.489,2.113 0.824,3.231 C 2.567,0.293 1.118,0.663 0,0 Z"
       style="fill:none;stroke:#010101;stroke-width:0.529;stroke-linecap:butt;stroke-linejoin:miter;stroke-miterlimit:10;stroke-dasharray:none;stroke-opacity:1"
       transform="matrix(1.3333333,0,0,-1.3333333,2105.1792,316.954)" />
    <path
       id="path125"
       d="m 0,0 -2.886,1.031 c 0.784,1.042 0.87,2.454 0.194,3.594 -0.91,1.534 -2.9,2.042 -4.435,1.132 l -3.452,-2.048 v 0 H -10.58 L -10.759,3.603 C -10.769,3.597 -10.777,3.589 -10.785,3.583 -10.788,3.581 -10.79,3.578 -10.792,3.576 -10.799,3.569 -10.805,3.563 -10.81,3.558 -10.812,3.555 -10.813,3.553 -10.814,3.551 -10.82,3.542 -10.826,3.533 -10.831,3.524 -10.832,3.521 -10.833,3.519 -10.834,3.516 -10.838,3.508 -10.841,3.501 -10.843,3.493 -10.844,3.49 -10.845,3.487 -10.845,3.483 -10.848,3.474 -10.849,3.465 -10.85,3.456 V 3.451 c -0.001,-0.01 0,-0.019 0,-0.028 0,-10e-4 10e-4,-0.002 10e-4,-0.005 10e-4,-0.002 10e-4,-0.005 10e-4,-0.009 l 0.006,-0.023 c 0.002,-0.004 0.002,-0.006 0.004,-0.009 0.004,-0.011 0.008,-0.022 0.014,-0.03 V 3.346 l 0.082,-0.138 c 0.053,-0.09 0.168,-0.119 0.258,-0.066 l 0.038,0.023 6.587,-2.354 C -3.936,0.754 -4.016,0.699 -4.098,0.65 L -7.73,-1.504 c -0.089,-0.053 -0.119,-0.167 -0.066,-0.257 l 1.317,-2.221 c 0.053,-0.089 0.168,-0.119 0.258,-0.066 l 0.137,0.082 c 0.09,0.053 0.119,0.168 0.066,0.257 l -1.139,1.922 3.333,1.976 c 0.198,0.118 0.383,0.258 0.551,0.413 l 2.968,-1.062 c 0.053,-0.019 0.112,-0.013 0.159,0.015 l 0.179,0.107 c 0.063,0.037 0.098,0.107 0.091,0.179 C 0.117,-0.087 0.068,-0.024 0,0 Z m -9.848,3.52 2.995,1.776 c 1.281,0.76 2.941,0.335 3.701,-0.945 0.587,-0.99 0.473,-2.259 -0.268,-3.128 z"
       style="fill:none;stroke:#010101;stroke-width:0.529;stroke-linecap:butt;stroke-linejoin:miter;stroke-miterlimit:10;stroke-dasharray:none;stroke-opacity:1"
       transform="matrix(1.3333333,0,0,-1.3333333,2121.8133,313.92013)" />
    <path
       id="path126"
       d="m 0,0 -5.954,-3.532 -4.169,7.029 c -0.053,0.088 -0.168,0.118 -0.257,0.065 L -10.519,3.48 c -0.088,-0.052 -0.118,-0.167 -0.065,-0.256 l 4.347,-7.328 c 0.052,-0.089 0.168,-0.119 0.257,-0.066 l 6.253,3.709 c 0.089,0.053 0.119,0.168 0.066,0.257 L 0.257,-0.066 C 0.204,0.023 0.089,0.053 0,0 Z"
       style="fill:none;stroke:#010101;stroke-width:0.529;stroke-linecap:butt;stroke-linejoin:miter;stroke-miterlimit:10;stroke-dasharray:none;stroke-opacity:1"
       transform="matrix(1.3333333,0,0,-1.3333333,2132.476,307.24307)" />
  </g>
</svg>
